#!OML:ASF F:\VICON\USERDATA\INSTALL\Justin_Nancy\Justin_Nancy.ASF
:FULLY-SPECIFIED
:DEGREES
48
root 1.1832 17.3195 -21.1522 0.403452 0.122101 4.30791
lowerback 7.38482 -1.8846 -6.12321
upperback 0.89639 -2.92406 2.39676
thorax -2.77555 -1.38573 6.22706
lowerneck -16.3681 -2.73058 -9.06748
upperneck 18.4637 -2.58295 5.30704
head 8.65423 -1.3049 2.98368
rclavicle 1.32192e-014 3.97569e-015
rhumerus -37.4664 -25.0377 -70.2342
rradius 21.0947
rwrist 18.8963
rhand -13.4558 11.5419
rfingers 7.12502
rthumb 12.6538 -18.0548
lclavicle 1.32192e-014 3.97569e-015
lhumerus -21.3777 6.3012 85.0645
lradius 29.0784
lwrist -10.3271
lhand -17.2456 26.2869
lfingers 7.12502
lthumb 8.99831 416.075
rfemur -24.8315 1.38246 16.2854
rtibia 16.3037
rfoot -0.235224 -6.58933
rtoes -10.6548
lfemur 11.1514 -4.09516 -27.5632
ltibia 21.4379
lfoot -13.572 2.5163
ltoes -18.4382
49
root 1.1561 17.3449 -20.9859 0.422908 0.089144 4.12487
lowerback 7.29969 -1.92346 -5.91936
upperback 0.843295 -2.9545 2.43213
thorax -2.78727 -1.40103 6.14806
lowerneck -16.0899 -2.72468 -9.03923
upperneck 18.2266 -2.58727 5.23594
head 8.52296 -1.31284 2.95174
rclavicle -5.1684e-015 -7.95139e-016
rhumerus -37.5536 -24.7248 -70.3787
rradius 21.1111
rwrist 18.8508
rhand -13.2456 11.4719
rfingers 7.12502
rthumb 12.8564 -18.1121
lclavicle -5.1684e-015 -7.95139e-016
lhumerus -21.5637 6.66712 85.0024
lradius 28.8594
lwrist -10.2162
lhand -18.7371 23.3101
lfingers 7.12502
lthumb 7.55893 413.155
rfemur -24.691 1.3602 16.5956
rtibia 16.6916
rfoot 0.351979 -5.96738
rtoes -9.44279
lfemur 11.1229 -4.6011 -27.4729
ltibia 22.3525
lfoot -12.5769 2.69743
ltoes -17.8393
50
root 1.1299 17.3795 -20.8121 0.348879 -0.020608 3.76964
lowerback 7.13856 -1.93643 -5.50144
upperback 0.927556 -2.92763 2.48736
thorax -2.63154 -1.39992 5.95497
lowerneck -16.3359 -2.66352 -9.10922
upperneck 18.5219 -2.48645 5.31754
head 8.66131 -1.26267 3.00712
rclavicle 4.68138e-014 -1.59028e-014
rhumerus -37.5203 -25.1144 -70.2684
rradius 20.9421
rwrist 19.6127
rhand -13.1929 11.2649
rfingers 7.12502
rthumb 12.9073 -18.316
lclavicle 4.68138e-014 -1.59028e-014
lhumerus -21.7105 7.06846 84.9748
lradius 28.9009
lwrist -10.1148
lhand -15.925 28.3383
lfingers 7.12502
lthumb 10.2725 418.067
rfemur -24.4052 1.3217 17.122
rtibia 17.0593
rfoot 0.915465 -5.43446
rtoes -9.30226
lfemur 11.1013 -5.03242 -27.249
ltibia 23.5638
lfoot -11.6338 2.96817
ltoes -18.7546
51
root 1.10034 17.4051 -20.6434 0.302062 -0.115714 3.43519
lowerback 7.09228 -1.95801 -5.24856
upperback 0.872707 -2.9312 2.62396
thorax -2.66784 -1.40115 5.9548
lowerneck -16.1115 -2.52912 -9.19497
upperneck 18.6418 -2.29178 5.26387
head 8.6469 -1.18746 3.02912
rclavicle 1.92821e-014 -7.95139e-016
rhumerus -37.6289 -25.4328 -69.9094
rradius 20.6006
rwrist 20.3866
rhand -13.3263 11.2399
rfingers 7.12502
rthumb 12.7787 -18.3491
lclavicle 1.92821e-014 -7.95139e-016
lhumerus -22.1608 7.90576 84.9351
lradius 28.9402
lwrist -10.7225
lhand -18.1515 27.164
lfingers 7.12502
lthumb 8.12414 416.988
rfemur -24.1279 1.23374 17.6663
rtibia 17.4302
rfoot 1.33574 -5.19066
rtoes -8.69468
lfemur 10.8765 -5.40397 -27.017
ltibia 25.0346
lfoot -10.502 3.10141
ltoes -21.8041
52
root 1.07247 17.425 -20.478 0.224453 -0.167659 3.16577
lowerback 7.28353 -2.01847 -5.07998
upperback 0.670008 -3.00404 2.77198
thorax -2.97639 -1.42256 6.03802
lowerneck -15.6439 -2.35489 -9.21465
upperneck 18.6534 -2.05877 5.10882
head 8.5471 -1.10135 3.00837
rclavicle 1.85864e-014 -7.95139e-016
rhumerus -37.904 -24.8835 -69.8286
rradius 20.5599
rwrist 20.1789
rhand -13.3228 11.4155
rfingers 7.12502
rthumb 12.782 -18.1732
lclavicle 1.85864e-014 -7.95139e-016
lhumerus -22.9134 8.66258 84.8664
lradius 29.0237
lwrist -10.9423
lhand -18.3101 27.3584
lfingers 7.12502
lthumb 7.97103 417.188
rfemur -23.715 1.10538 18.1564
rtibia 17.814
rfoot 1.42811 -4.83675
rtoes -7.57624
lfemur 10.4673 -5.57217 -26.7599
ltibia 26.7053
lfoot -9.2197 2.91594
ltoes -24.3167
